<?xml version="1.0" encoding="UTF-8" standalone="no"?>
<!-- Created with Inkscape (http://www.inkscape.org/) -->

<svg
   xmlns:dc="http://purl.org/dc/elements/1.1/"
   xmlns:cc="http://creativecommons.org/ns#"
   xmlns:rdf="http://www.w3.org/1999/02/22-rdf-syntax-ns#"
   xmlns:svg="http://www.w3.org/2000/svg"
   xmlns="http://www.w3.org/2000/svg"
   xmlns:sodipodi="http://sodipodi.sourceforge.net/DTD/sodipodi-0.dtd"
   xmlns:inkscape="http://www.inkscape.org/namespaces/inkscape"
   width="16px"
   height="16px"
   id="svg9243"
   version="1.1"
   inkscape:version="0.48.3.1 r9886"
   sodipodi:docname="Circle 1.svg">
  <defs
     id="defs9245" />
  <sodipodi:namedview
     id="base"
     pagecolor="#ffffff"
     bordercolor="#666666"
     borderopacity="1.0"
     inkscape:pageopacity="0.0"
     inkscape:pageshadow="2"
     inkscape:zoom="11.098901"
     inkscape:cx="2.1455706"
     inkscape:cy="8.742918"
     inkscape:current-layer="layer1"
     showgrid="true"
     inkscape:grid-bbox="true"
     inkscape:document-units="px"
     inkscape:window-width="1317"
     inkscape:window-height="744"
     inkscape:window-x="49"
     inkscape:window-y="24"
     inkscape:window-maximized="1" />
  <metadata
     id="metadata9248">
    <rdf:RDF>
      <cc:Work
         rdf:about="">
        <dc:format>image/svg+xml</dc:format>
        <dc:type
           rdf:resource="http://purl.org/dc/dcmitype/StillImage" />
        <dc:title></dc:title>
      </cc:Work>
    </rdf:RDF>
  </metadata>
  <g
     id="layer1"
     inkscape:label="Layer 1"
     inkscape:groupmode="layer">
    <path
       sodipodi:type="arc"
       style="fill:#000000;fill-opacity:1"
       id="path3054"
       sodipodi:cx="44.593803"
       sodipodi:cy="19.000837"
       sodipodi:rx="8.9187603"
       sodipodi:ry="9.6943045"
       d="m 53.512564,19.000837 a 8.9187603,9.6943045 0 1 1 -17.837521,0 8.9187603,9.6943045 0 1 1 17.837521,0 z"
       transform="matrix(0.89698565,0,0,0.82522682,-32.000002,-7.6800006)" />
    <path
       style="fill:#ffff00;fill-opacity:1;fill-rule:nonzero;stroke:#000000;stroke-width:0.09009901;stroke-miterlimit:4;stroke-opacity:1;stroke-dasharray:none"
       d="M 6.5165419,15.809133 C 4.705056,15.398264 3.4434266,14.69084 2.2140528,13.396629 0.78860373,11.896002 0.08917993,10.126328 0.08665454,8.0139137 0.0824819,4.5236205 2.2782584,1.5193221 5.6353575,0.42208499 6.3175147,0.19912813 6.6590685,0.14430186 7.5971884,0.10717151 c 1.262092,-0.049953 2.0230241,0.048768 2.9959366,0.38868317 2.486011,0.86856052 4.417982,2.97647402 5.115102,5.58093032 0.270905,1.012109 0.273473,2.855629 0.0054,3.8470899 -0.756201,2.7963441 -2.794686,4.8844881 -5.576539,5.7123861 -0.9949379,0.296101 -2.7150821,0.378234 -3.6205035,0.172872 l -3.6e-6,0 z"
       id="path3644"
       inkscape:connector-curvature="0" />
  </g>
</svg>
